<svg xmlns="http://www.w3.org/2000/svg" width="121.813" height="142.97" viewBox="0 0 121.813 142.97">
  <metadata><?xpacket begin="﻿" id="W5M0MpCehiHzreSzNTczkc9d"?>
<x:xmpmeta xmlns:x="adobe:ns:meta/" x:xmptk="Adobe XMP Core 5.6-c138 79.159824, 2016/09/14-01:09:01        ">
   <rdf:RDF xmlns:rdf="http://www.w3.org/1999/02/22-rdf-syntax-ns#">
      <rdf:Description rdf:about=""/>
   </rdf:RDF>
</x:xmpmeta>
                                                                                                    
                                                                                                    
                                                                                                    
                                                                                                    
                                                                                                    
                                                                                                    
                                                                                                    
                                                                                                    
                                                                                                    
                                                                                                    
                                                                                                    
                                                                                                    
                                                                                                    
                                                                                                    
                                                                                                    
                                                                                                    
                                                                                                    
                                                                                                    
                                                                                                    
                                                                                                    
                           
<?xpacket end="w"?></metadata>
<defs>
    <style>
      .cls-1 {
        fill: #e50914;
        fill-rule: evenodd;
      }
    </style>
  </defs>
  <path class="cls-1" d="M355.94,2846.43l1.782-.42,4.721,20.08-0.946,1.62-20.775,4.85Zm-47.916,90.29a15.7,15.7,0,1,1-15.732,15.7,15.72,15.72,0,0,1,15.732-15.7h0Zm-4.871,7.42,13.148,8.28-13.148,8.28v-16.56Zm-52.924-28.27h0.034v-7.16l8.472-14.54H276.7l-12.644,21.7h15.206l12.644-21.7h17.951l-12.646,21.7h17.344l12.634-21.7h17.962l-12.645,21.7h16.406l12.633-21.7h4.253v21.7h0.033v73.09h-115.6v-73.09Zm17.024,10.76h81.552v51.57H267.253v-51.57Zm-16.99-39.21a6.265,6.265,0,1,1-6.275,6.26,6.268,6.268,0,0,1,6.275-6.26h0Zm-5.031-15.14,13.927-3.25-10.449,18.03Zm31.408-7.33,20.774-4.86L282.2,2886.22l-20.775,4.86Zm38.552-9.01,20.785-4.84-15.217,26.12-20.785,4.85Z" transform="translate(-244 -2846)"/>
</svg>
